PathFileType	4	(X/Y/Z)	/Users/itak/Documents/Research/Walk-IL/dataset/trc/00292_00010.trc
DataRate	CameraRate	NumFrames	NumMarkers	Units	OrigDataRate	OrigDataStartFrame	OrigNumFrames
100.000000	100.000000	4	54	mm	100.000000	408	653
Frame#	Time	RPSI			LPSI			L3			STRN			T10			C7			CLAV			RBAK			LBAK			LSHO			LUPA			LAEL			LAOL			LWTS			LWPS			LFRA			LHPS			LHTS			RSHO			RUPA			RAEL			RAOL			RWTS			RWPS			RFRA			RIFD			RHPS			RBHD			LFHD			RFHD			LBHD			LHIP			RHIP			RASI			LASI			LKNE			LTHI			LANK			LTIP			LTOE			LMT1			LMT5			LHEE			RKNE			RTHI			RANK			RTIP			RTOE			RMT1			RMT5			RHEE			RHTS			LIFD			*53			
		X1	Y1	Z1	X2	Y2	Z2	X3	Y3	Z3	X4	Y4	Z4	X5	Y5	Z5	X6	Y6	Z6	X7	Y7	Z7	X8	Y8	Z8	X9	Y9	Z9	X10	Y10	Z10	X11	Y11	Z11	X12	Y12	Z12	X13	Y13	Z13	X14	Y14	Z14	X15	Y15	Z15	X16	Y16	Z16	X17	Y17	Z17	X18	Y18	Z18	X19	Y19	Z19	X20	Y20	Z20	X21	Y21	Z21	X22	Y22	Z22	X23	Y23	Z23	X24	Y24	Z24	X25	Y25	Z25	X26	Y26	Z26	X27	Y27	Z27	X28	Y28	Z28	X29	Y29	Z29	X30	Y30	Z30	X31	Y31	Z31	X32	Y32	Z32	X33	Y33	Z33	X34	Y34	Z34	X35	Y35	Z35	X36	Y36	Z36	X37	Y37	Z37	X38	Y38	Z38	X39	Y39	Z39	X40	Y40	Z40	X41	Y41	Z41	X42	Y42	Z42	X43	Y43	Z43	X44	Y44	Z44	X45	Y45	Z45	X46	Y46	Z46	X47	Y47	Z47	X48	Y48	Z48	X49	Y49	Z49	X50	Y50	Z50	X51	Y51	Z51	X52	Y52	Z52	X53	Y53	Z53	X54	Y54	Z54	

409	4.08	152.1239471435547	970.1680908203125	-415.9088439941406	297.3123474121094	988.3449096679688	-511.8808898925781	230.7098236083984	1051.59228515625	-447.56884765625	380.5928039550781	1223.987670898438	-249.2855377197266	216.4853515625	1166.63330078125	-458.465087890625	265.5943908691406	1409.902465820312	-433.9600830078125	350.3194580078125	1324.050659179688	-304.9067077636719	166.0713806152344	1276.909057617188	-427.6868286132812	337.9318237304688	1368.33837890625	-507.6159362792969	433.5279235839844	1372.511108398438	-467.4057312011719	471.2992248535156	1261.296508789062	-545.1705322265625	480.3211669921875	1063.566162109375	-577.9219360351562	395.78515625	1046.645141601562	-575.734130859375	512.4351196289062	829.4179077148438	-531.6015625	520.2963256835938	830.3430786132812	-604.5903930664062	495.8064575195312	959.2652587890625	-595.260498046875	520.7648315429688	743.25	-616.3651123046875	542.0051879882812	732.2830200195312	-554.7943115234375	178.1245574951172	1394.765991210938	-285.2244873046875	118.8388442993164	1337.725708007812	-246.4934234619141	82.88022613525391	1070.16650390625	-203.2518615722656	114.0518951416016	1059.848754882812	-292.44189453125	195.1477203369141	847.2864990234375	-177.7839202880859	114.9946365356445	845.3818969726562	-145.2601318359375	95.09206390380859	1004.733032226562	-176.8851318359375	187.8667755126953	660.5485229492188	-167.1183471679688	132.4390716552734	735.2696533203125	-128.3419189453125	241.2811584472656	1576.6494140625	-379.7973327636719	406.2265014648438	1586.087524414062	-245.4245147705078	317.5867919921875	1583.764770507812	-219.4746246337891	382.151611328125	1571.345703125	-419.86865234375	419.3257141113281	956.4356689453125	-509.0787353515625	126.5026168823242	904.38671875	-280.5077514648438	248.8552703857422	921.647705078125	-217.7144622802734	450.5647888183594	953.0877075195312	-365.8348693847656	489.7522277832031	490.6376647949219	-396.2922973632812	487.9676208496094	632.2730712890625	-429.2745971679688	462.3679504394531	40.17105865478516	-484.4646301269531	487.7298583984375	260.4258728027344	-439.7337341308594	469.8487243652344	34.19330215454102	-266.8256225585938	410.0943603515625	28.98132514953613	-321.7588806152344	511.3779907226562	36.20699691772461	-372.0749206542969	391.6752624511719	37.97716522216797	-508.3766784667969	227.9189147949219	447.6474914550781	-251.750732421875	182.6996307373047	698.2449951171875	-235.7246856689453	23.43156051635742	198.8499450683594	-555.3108520507812	199.6040191650391	347.8992614746094	-313.1207580566406	148.7308197021484	43.94165802001953	-580.8272094726562	142.0414733886719	106.0410995483398	-612.3441162109375	49.41559600830078	95.44367218017578	-545.24267578125	30.98942565917969	254.8349609375	-596.699462890625	202.2865905761719	732.0323486328125	-141.9893951416016	515.4225463867188	646.4647827148438	-569.1109008789062	nan	nan	nan	
410	4.09	157.4638671875	969.8642578125	-412.3945617675781	303.8943176269531	988.2685546875	-506.5210876464844	236.7924346923828	1052.030395507812	-443.6747436523438	383.9634399414062	1223.710571289062	-241.4814758300781	223.6439819335938	1167.899536132812	-454.3809814453125	273.0500793457031	1410.936889648438	-427.5950012207031	354.9234619140625	1323.941040039062	-297.1949157714844	173.1607055664062	1278.122314453125	-423.8755798339844	347.01025390625	1369.652954101562	-500.121337890625	441.5915832519531	1373.208251953125	-457.537841796875	481.9772338867188	1262.003295898438	-533.8855590820312	493.8413696289062	1064.143188476562	-565.6430053710938	409.4566650390625	1046.797729492188	-566.9442749023438	526.4730834960938	830.9602661132812	-517.32421875	536.3447875976562	831.3978881835938	-590.1360473632812	510.5838928222656	959.9425048828125	-581.9708251953125	538.0801391601562	744.0546875	-601.1394653320312	557.8720092773438	734.0530395507812	-539.0475463867188	182.6990356445312	1395.1201171875	-280.5757446289062	122.2593231201172	1338.187744140625	-243.4792785644531	83.53775787353516	1070.552978515625	-203.0870208740234	117.8598861694336	1060.361083984375	-290.8599243164062	189.5020751953125	845.2330322265625	-174.1983489990234	107.8156433105469	845.3988037109375	-145.24365234375	93.36312103271484	1005.153564453125	-176.4284820556641	175.5230560302734	658.6675415039062	-163.4052276611328	120.9945526123047	735.2225341796875	-127.4409027099609	247.9211883544922	1577.4541015625	-372.4779968261719	411.7347717285156	1585.860595703125	-236.6603546142578	322.89306640625	1583.62744140625	-211.4637908935547	389.1172790527344	1571.988647460938	-411.3585815429688	425.8854370117188	956.5942993164062	-502.0754699707031	130.2983551025391	904.9037475585938	-276.8166198730469	252.0719604492188	922.3724975585938	-213.2112884521484	455.7524719238281	953.472412109375	-358.5623779296875	492.2726745605469	489.9347229003906	-392.6368713378906	491.8831481933594	632.08203125	-423.7591857910156	462.0587768554688	40.35924911499023	-484.2803344726562	488.6900939941406	259.9044799804688	-438.1258544921875	469.9693908691406	34.04216766357422	-266.6090698242188	410.0780639648438	28.85548973083496	-321.59619140625	511.3330688476562	36.24684143066406	-371.9994506835938	391.4068908691406	38.26040267944336	-508.1934204101562	239.1721954345703	450.2242431640625	-236.3627624511719	189.1659088134766	700.2596435546875	-227.1851043701172	39.47121429443359	201.8327789306641	-543.5147094726562	212.5076751708984	350.4471740722656	-297.9795227050781	166.0602569580078	46.75376892089844	-559.8714599609375	160.0554351806641	107.2834930419922	-594.1842041015625	65.68692016601562	99.37068939208984	-528.7296142578125	47.8082275390625	256.7898254394531	-586.2081909179688	191.3034057617188	729.8253784179688	-137.7880401611328	532.7474975585938	647.792724609375	-553.55029296875	nan	nan	nan	
411	4.1	162.6787719726562	969.6280517578125	-408.7651062011719	310.2692565917969	988.1284790039062	-501.1077575683594	242.6775970458984	1052.478759765625	-439.7388000488281	387.2874755859375	1223.550903320312	-233.7443084716797	230.6457061767578	1169.168090820312	-450.1925659179688	280.3571472167969	1411.970458984375	-421.1629943847656	359.3980407714844	1323.915161132812	-289.5457763671875	180.1357116699219	1279.352294921875	-419.9829711914062	355.8115539550781	1370.921264648438	-492.5623779296875	449.3570861816406	1373.920043945312	-447.6990051269531	492.2513732910156	1262.734497070312	-522.5242309570312	507.0697326660156	1064.760375976562	-553.0989379882812	422.9328002929688	1046.95361328125	-557.8959350585938	540.2992553710938	832.6394653320312	-502.7036437988281	552.1836547851562	832.6063232421875	-575.28515625	525.0826416015625	960.7176513671875	-568.3119506835938	555.2152709960938	745.0297241210938	-585.4628295898438	573.5049438476562	735.9801635742188	-522.8673706054688	187.1563262939453	1395.515258789062	-275.9332580566406	125.5447387695312	1338.730590820312	-240.5863494873047	83.88591766357422	1071.080688476562	-203.4033660888672	121.7005615234375	1060.959350585938	-289.41650390625	183.7764739990234	843.7377319335938	-170.755859375	100.7127685546875	845.7561645507812	-145.8025512695312	91.28322601318359	1005.722534179688	-176.4673767089844	163.7280578613281	657.501708984375	-159.8390502929688	109.8177185058594	735.7243041992188	-127.1109924316406	254.4330444335938	1578.286376953125	-365.0212097167969	417.1048583984375	1585.488037109375	-227.7427062988281	328.0569763183594	1583.3671875	-203.3193054199219	395.964599609375	1572.620727539062	-402.6948547363281	432.3058166503906	956.5901489257812	-495.109130859375	134.0170593261719	905.649169921875	-272.9393920898438	255.3024749755859	923.2896728515625	-208.6894989013672	460.8605651855469	953.8457641601562	-351.3868103027344	494.6760559082031	489.2360534667969	-389.0146179199219	495.5602111816406	631.8248291015625	-418.3284301757812	461.7369079589844	40.57730102539062	-484.0792236328125	489.5813903808594	259.3980102539062	-436.4679260253906	470.0969848632812	33.87753677368164	-266.3795776367188	410.0499877929688	28.71711158752441	-321.4287414550781	511.2781982421875	36.30133819580078	-371.9105529785156	391.1234130859375	38.58356094360352	-507.975341796875	250.0421295166016	453.2083129882812	-221.0862121582031	195.6342315673828	702.5781860351562	-218.4575805664062	55.90744781494141	203.3502807617188	-530.9700317382812	225.1531219482422	353.1054992675781	-282.7573547363281	184.439697265625	49.37275695800781	-538.28564453125	178.669677734375	108.03857421875	-575.3933715820312	82.93838500976562	102.1666870117188	-511.3192138671875	64.55680084228516	257.2073364257812	-575.0394287109375	180.4586181640625	728.3810424804688	-133.6866912841797	550.0049438476562	649.3603515625	-537.6058349609375	nan	nan	nan	
412	4.11	167.7739410400391	969.4630126953125	-405.0135498046875	316.4574584960938	987.955322265625	-495.621337890625	248.4150848388672	1052.9287109375	-435.7212219238281	390.5731811523438	1223.527954101562	-226.0664215087891	237.5200805664062	1170.412963867188	-445.8748474121094	287.5193481445312	1412.994140625	-414.6705627441406	363.755859375	1323.999877929688	-281.9656982421875	186.9965972900391	1280.586669921875	-416.006591796875	364.3355407714844	1372.120849609375	-484.9410095214844	456.8320922851562	1374.6552734375	-437.9181823730469	502.0997314453125	1263.501708984375	-511.1587524414062	519.9240112304688	1065.43505859375	-540.3723754882812	436.1154174804688	1047.119384765625	-548.5604248046875	553.8894653320312	834.4794311523438	-487.756103515625	567.75048828125	833.9880981445312	-560.0558471679688	539.2110595703125	961.6144409179688	-554.347900390625	572.1426391601562	746.230712890625	-569.3606567382812	588.89794921875	738.1220092773438	-506.28466796875	191.509765625	1395.9638671875	-271.2935180664062	128.7435150146484	1339.358764648438	-237.7906036376953	83.96544647216797	1071.78857421875	-204.1168670654297	125.5301742553711	1061.65234375	-288.0494384765625	178.0257568359375	842.7908935546875	-167.4432525634766	93.78717041015625	846.4158325195312	-146.8864135742188	88.92359924316406	1006.454040527344	-176.9573974609375	152.5988311767578	656.979248046875	-156.5321044921875	99.07692718505859	736.6729736328125	-127.3723754882812	260.8307189941406	1579.132690429688	-357.4372253417969	422.3220520019531	1584.980224609375	-218.6833801269531	333.0649719238281	1582.99365234375	-195.0581512451172	402.69091796875	1573.23681640625	-393.8874816894531	438.5489501953125	956.4302368164062	-488.2011108398438	137.6870727539062	906.5910034179688	-268.9019775390625	258.5450439453125	924.3829345703125	-204.114990234375	465.8976135253906	954.1923217773438	-344.2873229980469	497.0028991699219	488.5469055175781	-385.4591674804688	499.0240478515625	631.5103759765625	-413.0148010253906	461.4236450195312	40.81517028808594	-483.8639526367188	490.4289855957031	258.9383850097656	-434.7831726074219	470.2278442382812	33.70610046386719	-266.1505126953125	410.0179748535156	28.57880020141602	-321.2654724121094	511.2239074707031	36.36680603027344	-371.8129272460938	390.8392944335938	38.95169448852539	-507.7366333007812	260.4791870117188	456.5590515136719	-205.9855041503906	201.9917755126953	705.1746215820312	-209.6389923095703	72.64531707763672	203.3750457763672	-517.6045532226562	237.5087890625	355.8146362304688	-267.4729919433594	203.7124481201172	51.66941833496094	-516.210205078125	197.7866058349609	108.2805252075195	-556.0282592773438	100.9629821777344	103.77587890625	-493.1289672851562	81.19415283203125	256.0632629394531	-563.1080322265625	169.8554229736328	727.64111328125	-129.7821350097656	567.1546020507812	651.1767578125	-521.2620849609375	nan	nan	nan	
